<?xml version="1.0" encoding="UTF-8" standalone="no"?>
<!-- Created with Inkscape (http://www.inkscape.org/) -->

<svg
   version="1.1"
   id="svg2"
   width="504.53867"
   height="469.95999"
   viewBox="0 0 504.53867 469.95999"
   sodipodi:docname="Bondhon-Logo-1 copy.ai"
   xmlns:inkscape="http://www.inkscape.org/namespaces/inkscape"
   xmlns:sodipodi="http://sodipodi.sourceforge.net/DTD/sodipodi-0.dtd"
   xmlns="http://www.w3.org/2000/svg"
   xmlns:svg="http://www.w3.org/2000/svg">
  <defs
     id="defs6">
    <clipPath
       clipPathUnits="userSpaceOnUse"
       id="clipPath16">
      <path
         d="M 0,352.47 H 378.404 V 0 H 0 Z"
         id="path14" />
    </clipPath>
  </defs>
  <sodipodi:namedview
     id="namedview4"
     pagecolor="#ffffff"
     bordercolor="#000000"
     borderopacity="0.25"
     inkscape:showpageshadow="2"
     inkscape:pageopacity="0.0"
     inkscape:pagecheckerboard="0"
     inkscape:deskcolor="#d1d1d1" />
  <g
     id="g8"
     inkscape:groupmode="layer"
     inkscape:label="Bondhon-Logo-1 copy"
     transform="matrix(1.3333333,0,0,-1.3333333,0,469.96)">
    <g
       id="g10">
      <g
         id="g12"
         clip-path="url(#clipPath16)">
        <g
           id="g18"
           transform="translate(34.6881,176.2303)">
          <path
             d="m 0,0 c 0,-84.07 68.15,-152.22 152.22,-152.22 9.67,0 19.14,0.9 28.31,2.64 l 2.82,-1.04 6.73,-2.48 c -14.97,-4.63 -30.87,-7.12 -47.36,-7.12 -88.49,0 -160.22,71.74 -160.22,160.22 0,88.49 71.73,160.23 160.22,160.23 57.66,0 108.21,-30.46 136.42,-76.17 -27.26,41.09 -73.93,68.17 -126.92,68.17 C 68.15,152.23 0,84.07 0,0"
             style="fill:#124b97;fill-opacity:1;fill-rule:nonzero;stroke:none"
             id="path20" />
        </g>
        <g
           id="g22"
           transform="translate(163.2246,122.9488)">
          <path
             d="m 0,0 h -45.479 v -0.02 c -7.007,5.786 -13.594,12.724 -19.34,21.002 -23.736,34.267 -51.405,33.326 -51.405,33.326 0,0 27.189,8.299 51.845,-8.439 24.656,-16.728 42.556,5.256 42.556,5.256 0,0 6.277,-27.86 21.823,-51.125"
             style="fill:#f5a61c;fill-opacity:1;fill-rule:nonzero;stroke:none"
             id="path24" />
        </g>
        <g
           id="g26"
           transform="translate(188.0613,122.9488)">
          <path
             d="m 0,0 h -17.018 c -13.164,17.028 -25.648,40.844 -25.878,70.015 -0.32,41.034 -23.005,56.01 -23.705,56.47 0.821,-0.26 27.299,-8.869 38.08,-36.148 C -17.559,62.627 9.6,70.716 9.6,70.716 9.6,70.716 -5.326,32.915 0,0"
             style="fill:#e32825;fill-opacity:1;fill-rule:nonzero;stroke:none"
             id="path28" />
        </g>
        <g
           id="g30"
           transform="translate(305.0365,194.7756)">
          <path
             d="m 0,0 c -2.483,-1.301 -68.253,-35.838 -93.801,-71.827 h -16.967 c -3.184,22.895 -2.574,55.41 16.847,84.411 22.845,34.106 12.524,59.263 12.203,60.014 0.471,-0.761 13.315,-22.134 11.122,-51.315 C -73.909,-22.914 -2.713,-0.861 0,0"
             style="fill:#76b943;fill-opacity:1;fill-rule:nonzero;stroke:none"
             id="path32" />
        </g>
        <g
           id="g34"
           transform="translate(99.599,186.127)">
          <path
             d="m 0,0 c 1.01,-9.272 9.346,-15.969 18.618,-14.959 9.271,1.011 15.969,9.346 14.958,18.618 -1.01,9.272 -9.345,15.969 -18.617,14.959 C 5.687,17.607 -1.01,9.272 0,0"
             style="fill:#f5a61c;fill-opacity:1;fill-rule:nonzero;stroke:none"
             id="path36" />
        </g>
        <g
           id="g38"
           transform="translate(164.2792,218.8245)">
          <path
             d="M 0,0 C 1.158,-10.629 10.713,-18.306 21.342,-17.148 31.971,-15.99 39.648,-6.434 38.49,4.194 37.332,14.823 27.776,22.5 17.148,21.342 6.519,20.184 -1.158,10.629 0,0"
             style="fill:#e32825;fill-opacity:1;fill-rule:nonzero;stroke:none"
             id="path40" />
        </g>
        <g
           id="g42"
           transform="translate(244.9524,217.2574)">
          <path
             d="M 0,0 C 1.331,-12.212 12.309,-21.032 24.521,-19.702 36.732,-18.371 45.553,-7.393 44.222,4.819 42.892,17.031 31.913,25.852 19.702,24.521 7.49,23.19 -1.331,12.212 0,0"
             style="fill:#76b943;fill-opacity:1;fill-rule:nonzero;stroke:none"
             id="path44" />
        </g>
        <g
           id="g46"
           transform="translate(237.3337,42.8955)">
          <path
             d="m 0,0 c 0,-1.007 -1.002,-1.707 -1.947,-1.36 l -1.817,0.667 -17.929,6.567 v 0.631 c 0,2.522 2.222,4.284 6.677,5.295 L -1.78,14.915 C -0.871,15.129 0,14.439 0,13.505 Z m -71.072,17.694 -25.363,12.004 c -0.506,0.239 -0.829,0.749 -0.829,1.309 v 2.366 c 0,5.296 2.773,8.79 8.329,10.472 l 18.062,5.488 c 0.93,0.283 1.87,-0.413 1.87,-1.386 V 19.003 c 0,-1.063 -1.108,-1.764 -2.069,-1.309 m -48.516,62.359 v -0.02 c 6.457,-5.352 13.262,-9.734 20.092,-13.317 0.211,-0.111 0.445,-0.167 0.683,-0.167 h 28.361 c 0.8,0 1.449,-0.649 1.449,-1.449 0,-0.638 -0.418,-1.201 -1.029,-1.386 l -13.497,-4.093 -10.832,-3.293 c -6.226,-1.932 -10.931,-5.296 -14.125,-10.091 -3.203,-4.795 -4.795,-9.92 -4.795,-15.386 v -7.53 c 0,-0.561 0.324,-1.072 0.832,-1.311 L -69.296,1.717 c 0.192,-0.091 0.403,-0.138 0.616,-0.138 h 14.245 c 0.8,0 1.449,0.649 1.449,1.449 V 65.1 c 0,0.8 0.648,1.449 1.448,1.449 h 50.09 C -0.648,66.549 0,65.9 0,65.1 v -4.859 c 0,-1.037 -1.054,-1.732 -2.008,-1.325 -4.042,1.723 -8.541,2.587 -13.509,2.587 -7.567,0 -13.814,-1.491 -18.73,-4.474 -0.791,-0.481 -1.521,-0.991 -2.182,-1.532 -0.43,-0.34 -0.84,-0.691 -1.211,-1.061 -0.38,-0.371 -0.741,-0.761 -1.061,-1.161 -0.201,-0.231 -0.391,-0.471 -0.57,-0.721 -0.271,-0.39 -0.531,-0.781 -0.751,-1.191 -0.171,-0.301 -0.331,-0.601 -0.461,-0.911 -0.771,-1.672 -1.151,-3.494 -1.151,-5.476 0,-5.046 2.363,-9.02 7.067,-11.923 4.715,-2.893 9.971,-4.345 15.767,-4.345 h 1.074 c 0.8,0 1.449,0.649 1.449,1.449 v 9.206 c 0,0.8 -0.649,1.448 -1.449,1.448 H -18.8 c -2.012,0 -3.654,0.401 -4.915,1.202 -1.261,0.8 -1.892,1.832 -1.892,3.093 0,2.853 2.943,4.285 8.829,4.285 5.466,0 9.631,-1.262 12.494,-3.785 C -1.431,43.084 0,39.72 0,35.516 v -5.034 c 0,-0.67 -0.46,-1.253 -1.111,-1.409 l -18.44,-4.409 C -25.187,23.323 -29.561,20.82 -32.675,17.166 -35.788,13.502 -37.34,9.358 -37.34,4.733 v -6.81 c 0,-0.606 0.378,-1.148 0.947,-1.358 l 8.594,-3.174 h 0.009 l 10.942,-4.025 16.606,-6.117 c 0.16,-0.059 0.329,-0.089 0.5,-0.089 h 14.321 c 0.8,0 1.448,0.648 1.448,1.448 v 33.373 c 0,0.668 0.457,1.249 1.105,1.407 l 8.455,2.065 c 0.913,0.223 1.792,-0.468 1.792,-1.407 v -27.99 c 0,-0.8 0.649,-1.448 1.449,-1.448 h 13.12 c 0.8,0 1.448,0.648 1.448,1.448 v 42.261 c 0,0.8 -0.648,1.449 -1.448,1.449 H 27.546 c -0.111,0 -0.221,-0.013 -0.329,-0.038 l -9.413,-2.191 c -0.908,-0.212 -1.777,0.478 -1.777,1.41 V 65.1 c 0,0.8 0.649,1.449 1.449,1.449 h 81.363 c 0.8,0 1.448,-0.649 1.448,-1.449 v -8.324 c 0,-1.088 -1.145,-1.768 -2.118,-1.28 -4.648,2.325 -10.207,3.485 -16.672,3.485 -7.738,0 -14.345,-2.463 -19.811,-7.378 C 56.22,46.678 53.487,40.691 53.487,33.624 v -1.382 c 0,-6.397 2.503,-11.843 7.508,-16.337 4.996,-4.505 11.032,-6.758 18.1,-6.758 h 3.597 c 0.8,0 1.448,0.649 1.448,1.449 v 10.607 c 0,0.8 -0.648,1.449 -1.448,1.449 h -3.597 c -2.603,0 -4.855,0.941 -6.747,2.833 -1.892,1.892 -2.843,4.145 -2.843,6.757 v 1.382 c 0,3.283 1.181,6.076 3.533,8.389 2.353,2.312 5.176,3.473 8.459,3.473 h 1.632 c 4.795,0 8.85,-1.692 12.173,-5.045 3.324,-3.364 4.985,-7.408 4.985,-12.113 v -25.3 c 0,-0.8 0.649,-1.449 1.449,-1.449 h 13.131 c 0.799,0 1.448,0.649 1.448,1.449 V 65.1 c 0,0.8 0.648,1.449 1.448,1.449 h 4.671 c 0.8,0 1.449,0.648 1.449,1.448 v 10.608 c 0,0.8 -0.649,1.448 -1.449,1.448 z"
             style="fill:#124b97;fill-opacity:1;fill-rule:nonzero;stroke:none"
             id="path48" />
        </g>
      </g>
    </g>
  </g>
</svg>
